<mxfile host="app.diagrams.net" modified="2023-04-16T13:30:21.270Z" agent="Mozilla/5.0 (Macintosh; Intel Mac OS X 10_15_7) AppleWebKit/537.36 (KHTML, like Gecko) Chrome/112.0.0.0 Safari/537.36" version="21.1.8" etag="O8b2rD1r3oJijFyPe4rw" type="github">
  <diagram name="Страница 1" id="uJL55iKiK-wTHvVssz5-">
    <mxGraphModel>
      <root>
        <mxCell id="0" />
        <mxCell id="1" parent="0" />
      </root>
    </mxGraphModel>
  </diagram>
</mxfile>
